<svg viewBox="0 0 100 100" preserveAspectRatio="xMidYMid meet" style="pointer-events: none; display: block; width: 100%; height: 100%;" xmlns="http://www.w3.org/2000/svg"><g >
			<path fill="rgb(255, 255, 255)" d="M 32.568745,66.023084 C 25.112057,58.432728 19.011131,52.157332 19.011131,52.07776 c 0,-0.07957 1.516833,-1.370151 3.370742,-2.86795 l 3.370742,-2.723272 7.923793,6.220236 7.923794,6.220235 0.540514,-0.595586 c 0.297283,-0.327572 1.549385,-1.738206 2.78245,-3.134742 C 49.003562,50.575335 56.121327,43.61728 61.482481,39.008927 66.900769,34.351462 73.978644,29.070982 80.13392,25.093938 l 2.247162,-1.451935 0.399548,0.874982 c 0.219753,0.48124 0.580298,1.319848 0.801215,1.863572 l 0.401665,0.988591 -2.953049,2.906489 c -4.88047,4.803524 -9.013417,9.420027 -13.66232,15.260821 -8.43663,10.599622 -16.495396,23.406045 -20.413115,32.439085 -0.428831,0.988751 -0.790712,1.809082 -0.80418,1.822957 -0.01347,0.01387 -6.125414,-6.185061 -13.582101,-13.775416 z"></path>
		</g></svg>